# xmcd
#
# Track frame offsets:
# 150
# 18946
# 34318
# 74268
# 96033
# 131862
# 154043
# 195065
# 215509
# 227169
# 252251
# 278644
#
# Disc length: 4380 seconds
#
#
# Revision: 0
# Processed by: cddbd v1.5PL3 Copyright (c) Steve Scherf et al.
# Submitted via: FreeRIP 2.53 
#
DISCID=9f111a0c
DTITLE=Acoustic Hot Tuna - 11-28-00 Ram's Head Tavern [CD 2)
DYEAR=2000
DGENRE=Blues
TTITLE0=Living In The Moment
TTITLE1=Embryonic Journey
TTITLE2=Good Shepherd
TTITLE3=Watch The North Wind Rise
TTITLE4=99 Year Blues
TTITLE5=I Am The Light Of This World
TTITLE6=Another Man Done Gone - Parchman Farm
TTITLE7=How Long Blues
TTITLE8=A Life Well Lived
TTITLE9=Nine Pound Hammer
TTITLE10=Hesitation Blues
TTITLE11=I Just Want To Make Love To You - w Geoff Achison
EXTD=w/ Geoff Achison\nRam's Head Tavern\nAnnapolis, MD
EXTT0=
EXTT1=
EXTT2=
EXTT3=
EXTT4=
EXTT5=
EXTT6=
EXTT7=
EXTT8=
EXTT9=
EXTT10=
EXTT11=
PLAYORDER=
